<?xml version="1.0" encoding="utf-8"?>
<!-- Generator: Adobe Illustrator 22.1.0, SVG Export Plug-In . SVG Version: 6.00 Build 0)  -->
<svg version="1.1" id="Layer_1" xmlns="http://www.w3.org/2000/svg" xmlns:xlink="http://www.w3.org/1999/xlink" x="0px" y="0px"
	 viewBox="0 0 724.8 588.2" style="enable-background:new 0 0 724.8 588.2;" xml:space="preserve">
<style type="text/css">
	.st0{fill:#F2F2F2;}
	.st1{fill:#FFFFFF;}
	.st2{fill:#CCCCCC;}
	.st3{fill:#6C63FF;}
	.st4{fill:#A0616A;}
	.st5{fill:#2F2E41;}
	.st6{fill:#3F3D56;}
</style>
<path class="st0" d="M18.3,255.7c0.2-1.4,0.5-2.8,0.8-4.2c5-24.9,13.8-48.9,26.1-71c0.4-0.8,0.9-1.6,1.3-2.4
	c45-79.9,136.6-149.2,261.6-158.4c139.6-16.2,127.7,93.7,153.4,171.9c0.3,0.8,0.5,1.6,0.8,2.3c11.2,32.8,29.4,59.7,69,68.7
	c1.9,0.4,3.9,0.8,5.9,1.2c9.2,1.6,18.6,2.2,27.9,2.1c31.1-0.4,61.1,11.3,82.3,33.3c35.1,36.4,48.8,84.6,44.4,131.2
	c-0.1,0.9-0.2,1.8-0.3,2.6c-7.9,71.9-59.1,139.1-142,152.3c-78.2,14.7-109.5-29.5-141-73.6c-0.5-0.7-1-1.5-1.6-2.2
	c-30.2-42-61.3-83-134.4-71.9c-128.8,18.8-205.2-16.7-238-73.9c-0.9-1.5-1.7-3-2.5-4.5C16.1,328.9,11.9,292.8,18.3,255.7z"/>
<path class="st1" d="M46.5,178c6.5,7.9,13.7,15.2,21.4,21.8c41.3,35.4,95.8,55.2,149.5,60.6c28,2.8,56.2,1.7,83.9-3.3
	c27.7-5.1,54.2-14.5,79.8-26.1c27.2-12.3,53.5-26.6,80.4-39.5c0.3,0.8,0.5,1.6,0.8,2.3c-24.6,11.9-48.7,25-73.5,36.5
	c-25.5,11.9-51.8,22.1-79.4,27.9c-27.1,5.7-54.9,7.6-82.6,5.6c-53.8-3.8-108.4-21.7-151.4-54.7c-11.1-8.5-21.2-18.1-30.1-28.8
	C45.6,179.6,46.1,178.8,46.5,178z"/>
<path class="st2" d="M231.6,0.8c-1.6,0-2.9,1.3-2.9,2.9v245.9c0,0.8,0.3,1.6,0.9,2.1c0.6,0.6,1.4,0.8,2.2,0.8
	c66.2-4.1,118.1-59.4,118.1-125.8C349.9,60.2,298,5,231.8,0.8C231.7,0.8,231.7,0.8,231.6,0.8L231.6,0.8z"/>
<path class="st2" d="M130.2,210.7c-1,0-2-0.5-2.7-1.3c-19.8-23-30.7-52.4-30.7-82.7C96.9,59.8,149.1,4.2,215.8,0c1-0.1,2,0.3,2.8,1
	c0.7,0.7,1.2,1.7,1.2,2.7v117.7c0,1-0.4,1.9-1.1,2.6L133,209.6c-0.7,0.7-1.6,1.1-2.6,1.1C130.3,210.7,130.3,210.7,130.2,210.7z"/>
<path class="st3" d="M215.8,253.3c-28.6-1.8-55.7-13.2-76.9-32.4c0,0-0.1-0.1-0.1-0.1c-1.4-1.4-1.4-3.8,0-5.2l74.7-74.7
	c0.7-0.7,1.6-1.1,2.6-1.1c2,0,3.7,1.7,3.7,3.7v106.2c0,1-0.4,2-1.2,2.7c-0.7,0.6-1.6,1-2.5,1C215.9,253.3,215.8,253.3,215.8,253.3z"
	/>
<path class="st1" d="M19,251.5c10.2,18.9,23.8,35.8,40.1,49.7c41.3,35.4,95.8,55.2,149.5,60.6c28,2.8,56.2,1.7,83.9-3.3
	c27.7-5.1,54.2-14.5,79.8-26.1c51.1-23.1,99-53.1,153.4-68.3c1.8-0.5,3.6-1,5.4-1.5c1.9,0.4,3.9,0.8,5.9,1.2
	c-27.8,6.9-54.4,17.4-80.2,29.7c-25.9,12.3-51,26.1-77,38.2c-25.5,11.9-51.8,22.1-79.4,27.9c-27.1,5.7-54.9,7.6-82.6,5.6
	c-53.8-3.8-108.4-21.7-151.4-54.7c-19.4-14.9-36.3-33.6-48.3-54.9C18.5,254.3,18.8,252.9,19,251.5z"/>
<path class="st1" d="M691.8,430.4c-0.1,0.9-0.2,1.8-0.3,2.6c-40.3-3.8-80.9-0.9-120.2,8.6c-28.5,6.9-55.6,17.6-81.9,30.2
	c-25.9,12.3-51,26.1-77,38.2c-1.3,0.6-2.5,1.2-3.8,1.8c-0.5-0.7-1-1.5-1.6-2.2c50.2-23,97.6-52.3,151.2-67.3
	C601.6,430.2,646.9,426.2,691.8,430.4z"/>
<path class="st2" d="M341.8,525.6c0-0.6,0.4-1,1-1l381,0c0.6,0,1,0.4,1,1s-0.4,1-1,1l-381,0C342.2,526.6,341.8,526.2,341.8,525.6z"
	/>
<circle class="st4" cx="569.7" cy="367.1" r="24.6"/>
<polygon class="st4" points="525,542.7 524.2,560.7 477.2,552.7 477.8,540.4 "/>
<path class="st5" d="M481.9,537.5l-0.8,17v0c-0.1,2.9-1.9,5.5-4.9,7.5c-3.3,2-7.2,2.9-11,2.7l-0.5,0l1.3-27.8L481.9,537.5z"/>
<polygon class="st4" points="479.1,513.3 461,513.3 466.8,560.6 479.1,560.6 "/>
<path class="st5" d="M482.2,572.5l-39.5,0V572c0,0,0,0,0,0c0-8.5,6.9-15.4,15.4-15.4h0l24.1,0L482.2,572.5z"/>
<path class="st4" d="M594.8,549.1c4.3,2.6,9.7,2,13.3-1.5c4.2-4.2,4.2-11,0-15.3l-2.3-95.2l-23.3-1.6l9.8,97.4
	c-0.4,0.5-0.8,1-1.1,1.5C588.1,539.5,589.8,546.1,594.8,549.1L594.8,549.1z"/>
<path class="st3" d="M582.7,452.4c-0.2,0-0.5,0-0.7,0c-2.7-0.1-4.8-2.3-4.7-4.9l0.6-24.2c-0.9-7.3,4.3-14,11.6-14.9
	c7.3-0.9,14,4.2,15,11.6l6.4,23.4c0.1,0.2,0.1,0.5,0.1,0.7c0.3,2.6-1.6,5-4.2,5.4L582.7,452.4L582.7,452.4z"/>
<path class="st5" d="M520,561c-2-0.1-3.7-1.4-4.2-3.3l-3.7-13.2c-0.6-2.3,0.6-4.6,2.8-5.4l11.6-4.3l-37.1-35.4l-6.7,25
	c0,0.1-0.1,0.2-0.1,0.4c-0.8,2.3-3.4,3.6-5.8,2.7l-17.5-6.3c-2.2-0.8-3.4-3.1-2.8-5.3l16.1-65c0.5-2,1.4-3.9,2.8-5.5
	c4.9-5.9,13.5-6.7,19.4-1.8l30.7,25.5l57.5,51.5l15.8,16.4c1.7,2.4,2.6,5.3,2.9,8.2c0.6,9.2-6.3,17.1-15.5,17.8L520,561z"/>
<path class="st3" d="M587,525.9c-37.5-5.8-58.3-23.4-65.5-55.4l0-0.1l4.5-41.8c0.1-1.2,0.3-2.4,0.5-3.6
	c3.9-19.9,23.2-32.8,43.1-28.8l0,0c0.8,0.2,1.6,0.3,2.4,0.5c2,0.4,4.1,1,6,1.8c18.8,7.4,28.1,28.7,20.7,47.6l-9.6,24.4l-1.5,55.6
	L587,525.9z"/>
<path class="st4" d="M564.9,487.4c0.4,0.1,0.9,0.2,1.3,0.3c5.6,1.6,8.8,7.5,7.1,13c-1.6,5.6-7.5,8.8-13,7.1c-5.6-1.6-8.8-7.5-7.1-13
	l-38-41.7c-2.4-2.6-2.8-6.5-0.9-9.6l11.2-18.3l15.3,10.1l-5.3,10.8l27.8,41.1C563.8,487.3,564.4,487.3,564.9,487.4L564.9,487.4z"/>
<path class="st3" d="M534.2,444.8l-18.9-12.6c-0.2-0.1-0.4-0.3-0.5-0.4c-1.8-1.7-2-4.5-0.3-6.4l15.2-16.8c3.8-5.7,11.6-7.2,17.3-3.4
	c5.8,3.8,7.3,11.6,3.5,17.3l-9.6,20.4c-0.6,1.2-1.6,2.1-2.9,2.4C536.7,445.8,535.3,445.6,534.2,444.8z"/>
<path class="st2" d="M239.5,381.8c0-2.4,2-4.4,4.4-4.4H325c2.4,0,4.4,2,4.4,4.4s-2,4.4-4.4,4.4h-81.1
	C241.5,386.2,239.5,384.2,239.5,381.8z"/>
<path class="st6" d="M340,381.3c0-5.1,4.1-9.3,9.3-9.3c5.1,0,9.3,4.1,9.3,9.3c0,5.1-4.1,9.3-9.3,9.3
	C344.1,390.6,340,386.4,340,381.3z"/>
<path class="st2" d="M239.5,408.2c0-2.4,2-4.4,4.4-4.4H325c2.4,0,4.4,2,4.4,4.4s-2,4.4-4.4,4.4h-81.1
	C241.5,412.6,239.5,410.7,239.5,408.2z"/>
<path class="st6" d="M340,407.8c0-5.1,4.1-9.3,9.3-9.3s9.3,4.1,9.3,9.3s-4.1,9.3-9.3,9.3C344.1,417,340,412.9,340,407.8z"/>
<path class="st2" d="M239.5,434.7c0-2.4,2-4.4,4.4-4.4H325c2.4,0,4.4,2,4.4,4.4s-2,4.4-4.4,4.4h-81.1
	C241.5,439.1,239.5,437.1,239.5,434.7z"/>
<path class="st6" d="M340,434.2c0-5.1,4.1-9.3,9.3-9.3c5.1,0,9.3,4.1,9.3,9.3c0,5.1-4.1,9.3-9.3,9.3
	C344.1,443.5,340,439.3,340,434.2z"/>
<path class="st6" d="M220.6,408.1c0.5,0,0.9-0.4,0.9-0.9c0-0.5-0.4-0.9-0.9-0.9H188V200.2c0-0.5-0.4-0.9-0.9-0.9
	c-0.5,0-0.9,0.4-0.9,0.9v207c0,0.5,0.4,0.9,0.9,0.9H220.6C220.6,408.1,220.6,408.1,220.6,408.1z"/>
<path class="st2" d="M66.7,52.7c0.5-6.3,6-10.9,12.2-10.4c6.3,0.5,10.9,6,10.4,12.2c-0.5,6.3-6,10.9-12.2,10.4l0,0
	C70.9,64.4,66.2,58.9,66.7,52.7z M77.3,63.2L77.3,63.2c5.3,0.4,9.9-3.5,10.4-8.8c0.4-5.3-3.5-9.9-8.8-10.4
	c-5.3-0.4-9.9,3.5-10.4,8.8C68,58.1,72,62.7,77.3,63.2L77.3,63.2L77.3,63.2z"/>
<circle class="st2" cx="38" cy="28.8" r="7"/>
<circle class="st2" cx="3.7" cy="6.8" r="3.7"/>
<path class="st2" d="M133.7,272.7L133.7,272.7c5.2-3.5,12.3-2,15.7,3.2c3.5,5.2,2,12.3-3.2,15.7c-5.2,3.5-12.3,2-15.7-3.2
	C127.1,283.2,128.5,276.2,133.7,272.7z M148,276.9c-2.9-4.4-8.9-5.6-13.3-2.7l0,0c-4.4,2.9-5.6,8.9-2.7,13.3
	c2.9,4.4,8.9,5.6,13.3,2.7C149.7,287.3,150.9,281.3,148,276.9L148,276.9z"/>
<circle class="st2" cx="116.9" cy="323.2" r="7"/>
<circle class="st2" cx="97.4" cy="359.1" r="3.7"/>
<path class="st2" d="M397.3,102.8L397.3,102.8L397.3,102.8c-5.6-2.8-7.9-9.6-5.1-15.2c2.8-5.6,9.6-7.9,15.2-5.1s7.9,9.6,5.1,15.2
	C409.7,103.3,402.9,105.6,397.3,102.8z M398.1,101.3L398.1,101.3L398.1,101.3c4.8,2.4,10.5,0.4,12.9-4.3c2.4-4.8,0.4-10.5-4.3-12.9
	c-4.8-2.4-10.5-0.4-12.9,4.3C391.4,93.1,393.3,98.9,398.1,101.3z"/>
<circle class="st2" cx="449.4" cy="92" r="7"/>
<circle class="st2" cx="490.2" cy="90.9" r="3.7"/>
<path class="st5" d="M543.8,366.5c0.3-11.8,6.5-22.6,16.4-28.9c9.7-6,22-6.1,31.3-0.4l1.1,0.6l-10.4,2.3c9.3,3,17.1,9.6,21.6,18.3
	l0.5,0.9l-10.9-2.2c4.8,7,3.4,18.1-3.2,24l-1,0.9l1.2-8.7c0.1-0.4,0-0.7-0.2-1.1c-0.5-0.8-1.5-1-2.2-0.5c-1.2,0.7-1.9,1.2-2.6,0.9
	c-0.6-0.2-0.9-0.9-1.3-1.9c-0.9-3.2-2.3-6.3-3.9-9.2c-4-6.2-11.3-9.6-18.6-8.6c-7.2,1-14,6.6-16.8,13.8l-1,2.6L543.8,366.5z"/>
</svg>
